# xmcd CD database file generated by Grip 3.2.0
# 
# Track frame offsets:
#       150
#       19964
#       36721
#       56772
#       77570
#       95093
#       114521
#       135102
#       153239
#       170132
#       185694
#       203303
# 
# Disc length: 3128 seconds
# 
# Revision: 2
# Processed by: cddbd v1.5.2PL0 Copyright (c) Steve Scherf et al.
# Submitted via: Grip 3.2.0
# 
DISCID=9e0c360c
DTITLE=Matthew West - Into The Light
DYEAR=2012
DGENRE=Other
TTITLE0=Into The Light
TTITLE1=Hello, My Name is
TTITLE2=Forgiveness
TTITLE3=Do Something
TTITLE4=Moved By Mercy
TTITLE5=We Are The Broken
TTITLE6=Unchangeable
TTITLE7=Wonderfully Made
TTITLE8=Waitin' on a Miracle
TTITLE9=Restored
TTITLE10=Love Stands Waiting
TTITLE11=The Power of a Prayer
EXTD=sparrowrecords.com
EXTT0=
EXTT1=
EXTT2=
EXTT3=
EXTT4=
EXTT5=
EXTT6=
EXTT7=
EXTT8=
EXTT9=
EXTT10=
EXTT11=
PLAYORDER=
